# xmcd
#
# Track frame offsets:
# 150
# 12831
# 25768
# 38671
# 49842
# 59868
# 73395
# 86319
# 99085
# 108478
# 122181
# 135125
# 147986
# 161089
# 173479
# 186129
# 198465
# 211212
# 224689
# 235657
# 247856
# 261821
# 273876
#
# Disc length: 3814 seconds
#
#
# Revision: 2
# Processed by: cddbd v1.5.2PL0 Copyright (c) Steve Scherf et al.
# Submitted via: FreeRIP 2.951 
#
DISCID=430ee417
DTITLE=Memphis Slim - Worried Life Blues, CD 2
DYEAR=2001
DGENRE=Jazz
TTITLE0=Midnight Jump
TTITLE1=Messin' Around
TTITLE2=Lovin' Man Blues
TTITLE3=Lonesome
TTITLE4=You And I
TTITLE5=Timsy's Whimsy
TTITLE6=Frisco Bay
TTITLE7=Restless Nights
TTITLE8=If You Live That Life
TTITLE9=Love At Sight
TTITLE10=Jumping Bean
TTITLE11=A Letter Home
TTITLE12=Grinder Man Blues
TTITLE13=Slim's Boogie
TTITLE14=Mistake In Life
TTITLE15=The Girl I Love
TTITLE16=Mean Little Woman
TTITLE17=Slim's Blues
TTITLE18=Having Fun
TTITLE19=Flock Rocker
TTITLE20=I Guess I'm Fool
TTITLE21=Really Got The Blues
TTITLE22=Mother Earth
EXTD=
EXTT0=
EXTT1=
EXTT2=
EXTT3=
EXTT4=
EXTT5=
EXTT6=
EXTT7=
EXTT8=
EXTT9=
EXTT10=
EXTT11=
EXTT12=
EXTT13=
EXTT14=
EXTT15=
EXTT16=
EXTT17=
EXTT18=
EXTT19=
EXTT20=
EXTT21=
EXTT22=
PLAYORDER=
